<svg xmlns="http://www.w3.org/2000/svg" width="21" height="15" viewBox="0 0 21 15">
    <path fill="#FFF" fill-rule="nonzero" d="M10.5.469C5.727.469 1.651 3.384 0 7.5c1.651 4.116 5.727 7.031 10.5 7.031S19.349 11.616 21 7.5C19.349 3.384 15.273.469 10.5.469zm0 11.719c-2.635 0-4.773-2.1-4.773-4.688 0-2.588 2.138-4.688 4.773-4.688s4.773 2.1 4.773 4.688c0 2.588-2.138 4.688-4.773 4.688zm0-7.5c-1.585 0-2.864 1.256-2.864 2.812 0 1.556 1.28 2.813 2.864 2.813 1.585 0 2.864-1.257 2.864-2.813 0-1.556-1.28-2.813-2.864-2.813z"/>
</svg>
